<svg width="128" height="48" viewBox="0 0 128 48" fill="none" xmlns="http://www.w3.org/2000/svg">
<path d="M20.5114 20.5796H16.2614C16.1402 19.8826 15.9167 19.2652 15.5909 18.7273C15.2652 18.1818 14.8598 17.7197 14.375 17.3409C13.8902 16.9621 13.3371 16.6781 12.7159 16.4887C12.1023 16.2917 11.4394 16.1932 10.7273 16.1932C9.46212 16.1932 8.34091 16.5114 7.36364 17.1477C6.38636 17.7765 5.62121 18.7008 5.06818 19.9205C4.51515 21.1326 4.23864 22.6137 4.23864 24.3637C4.23864 26.144 4.51515 27.644 5.06818 28.8637C5.62879 30.0758 6.39394 30.9924 7.36364 31.6137C8.34091 32.2273 9.45833 32.5341 10.7159 32.5341C11.4129 32.5341 12.0644 32.4432 12.6705 32.2614C13.2841 32.072 13.8333 31.7955 14.3182 31.4318C14.8106 31.0682 15.2235 30.6212 15.5568 30.0909C15.8977 29.5606 16.1326 28.9546 16.2614 28.2728L20.5114 28.2955C20.3523 29.4015 20.0076 30.4394 19.4773 31.4091C18.9545 32.3788 18.2689 33.2349 17.4205 33.9773C16.572 34.7121 15.5795 35.2879 14.4432 35.7046C13.3068 36.1137 12.0455 36.3182 10.6591 36.3182C8.61364 36.3182 6.78788 35.8447 5.18182 34.8978C3.57576 33.9508 2.31061 32.5834 1.38636 30.7955C0.462121 29.0076 0 26.8637 0 24.3637C0 21.8561 0.465909 19.7121 1.39773 17.9318C2.32955 16.144 3.59848 14.7765 5.20455 13.8296C6.81061 12.8826 8.62879 12.4091 10.6591 12.4091C11.9545 12.4091 13.1591 12.5909 14.2727 12.9546C15.3864 13.3182 16.3788 13.8523 17.25 14.5568C18.1212 15.2538 18.8371 16.1099 19.3977 17.125C19.9659 18.1326 20.3371 19.2841 20.5114 20.5796Z" fill="#181D25"/>
<path d="M29.2131 36.3523C28.107 36.3523 27.1108 36.1553 26.2244 35.7614C25.3456 35.3599 24.6487 34.769 24.1335 33.9887C23.6259 33.2084 23.3722 32.2462 23.3722 31.1023C23.3722 30.1174 23.554 29.3031 23.9176 28.6591C24.2812 28.0152 24.7775 27.5 25.4062 27.1137C26.035 26.7273 26.7434 26.4356 27.5312 26.2387C28.3267 26.0341 29.1487 25.8864 29.9972 25.7955C31.0199 25.6894 31.8494 25.5947 32.4858 25.5114C33.1222 25.4205 33.5843 25.2841 33.8722 25.1023C34.1676 24.9129 34.3153 24.6212 34.3153 24.2273V24.1591C34.3153 23.3031 34.0616 22.6402 33.554 22.1705C33.0464 21.7008 32.3153 21.4659 31.3608 21.4659C30.3532 21.4659 29.554 21.6856 28.9631 22.125C28.3797 22.5644 27.9858 23.0834 27.7812 23.6818L23.9403 23.1364C24.2434 22.0758 24.7434 21.1894 25.4403 20.4773C26.1373 19.7576 26.9896 19.2197 27.9972 18.8637C29.0047 18.5 30.1184 18.3182 31.3381 18.3182C32.179 18.3182 33.0161 18.4167 33.8494 18.6137C34.6828 18.8106 35.4441 19.1364 36.1335 19.5909C36.8229 20.0379 37.3759 20.6477 37.7926 21.4205C38.2169 22.1932 38.429 23.1591 38.429 24.3182V36H34.4744V33.6023H34.3381C34.0881 34.0871 33.7358 34.5417 33.2812 34.9659C32.8343 35.3826 32.2699 35.7197 31.5881 35.9773C30.9138 36.2273 30.1222 36.3523 29.2131 36.3523ZM30.2812 33.3296C31.107 33.3296 31.8229 33.1667 32.429 32.8409C33.035 32.5076 33.5009 32.0682 33.8267 31.5228C34.16 30.9773 34.3267 30.3826 34.3267 29.7387V27.6818C34.1979 27.7879 33.9782 27.8864 33.6676 27.9773C33.3646 28.0682 33.0237 28.1477 32.6449 28.2159C32.2661 28.2841 31.8911 28.3447 31.5199 28.3978C31.1487 28.4508 30.8267 28.4962 30.554 28.5341C29.9403 28.6174 29.3911 28.7538 28.9062 28.9432C28.4214 29.1326 28.0388 29.3978 27.7585 29.7387C27.4782 30.072 27.3381 30.5038 27.3381 31.0341C27.3381 31.7917 27.6146 32.3637 28.1676 32.75C28.7206 33.1364 29.4252 33.3296 30.2812 33.3296Z" fill="#181D25"/>
<path d="M42.5653 36V18.5455H46.554V21.4546H46.7358C47.054 20.447 47.5994 19.6705 48.3722 19.125C49.1525 18.572 50.0426 18.2955 51.0426 18.2955C51.2699 18.2955 51.5237 18.3068 51.804 18.3296C52.0919 18.3447 52.3305 18.3712 52.5199 18.4091V22.1932C52.3456 22.1326 52.0691 22.0796 51.6903 22.0341C51.3191 21.9811 50.9593 21.9546 50.6108 21.9546C49.8608 21.9546 49.1866 22.1174 48.5881 22.4432C47.9972 22.7614 47.5312 23.2046 47.1903 23.7728C46.8494 24.3409 46.679 24.9962 46.679 25.7387V36H42.5653Z" fill="#181D25"/>
<path d="M64.9062 18.5455V21.7273H54.8722V18.5455H64.9062ZM57.3494 14.3637H61.4631V30.75C61.4631 31.3031 61.5464 31.7273 61.7131 32.0228C61.8873 32.3106 62.1146 32.5076 62.3949 32.6137C62.6752 32.7197 62.9858 32.7728 63.3267 32.7728C63.5843 32.7728 63.8191 32.7538 64.0312 32.7159C64.2509 32.6781 64.4176 32.644 64.5312 32.6137L65.2244 35.8296C65.0047 35.9053 64.6903 35.9887 64.2812 36.0796C63.8797 36.1705 63.3873 36.2235 62.804 36.2387C61.7737 36.269 60.8456 36.1137 60.0199 35.7728C59.1941 35.4243 58.5388 34.8864 58.054 34.1591C57.5767 33.4318 57.3419 32.5228 57.3494 31.4318V14.3637Z" fill="#181D25"/>
<path d="M68.1193 36V33.3864L77.1193 22.1023V21.9546H68.4148V18.5455H82.1534V21.3523L73.5852 32.4432V32.5909H82.4489V36H68.1193Z" fill="#181D25"/>
<path d="M86.3153 36V18.5455H90.429V36H86.3153ZM88.3835 16.0682C87.732 16.0682 87.1714 15.8523 86.7017 15.4205C86.232 14.9811 85.9972 14.4546 85.9972 13.8409C85.9972 13.2197 86.232 12.6932 86.7017 12.2614C87.1714 11.822 87.732 11.6023 88.3835 11.6023C89.0426 11.6023 89.6032 11.822 90.0653 12.2614C90.535 12.6932 90.7699 13.2197 90.7699 13.8409C90.7699 14.4546 90.535 14.9811 90.0653 15.4205C89.6032 15.8523 89.0426 16.0682 88.3835 16.0682Z" fill="#181D25"/>
<path d="M98.7727 12.7273V36H94.6591V12.7273H98.7727Z" fill="#181D25"/>
<path d="M107.116 12.7273V36H103.003V12.7273H107.116Z" fill="#181D25"/>
<path d="M116.369 36.3523C115.263 36.3523 114.267 36.1553 113.381 35.7614C112.502 35.3599 111.805 34.769 111.29 33.9887C110.782 33.2084 110.528 32.2462 110.528 31.1023C110.528 30.1174 110.71 29.3031 111.074 28.6591C111.438 28.0152 111.934 27.5 112.562 27.1137C113.191 26.7273 113.9 26.4356 114.688 26.2387C115.483 26.0341 116.305 25.8864 117.153 25.7955C118.176 25.6894 119.006 25.5947 119.642 25.5114C120.278 25.4205 120.741 25.2841 121.028 25.1023C121.324 24.9129 121.472 24.6212 121.472 24.2273V24.1591C121.472 23.3031 121.218 22.6402 120.71 22.1705C120.203 21.7008 119.472 21.4659 118.517 21.4659C117.509 21.4659 116.71 21.6856 116.119 22.125C115.536 22.5644 115.142 23.0834 114.938 23.6818L111.097 23.1364C111.4 22.0758 111.9 21.1894 112.597 20.4773C113.294 19.7576 114.146 19.2197 115.153 18.8637C116.161 18.5 117.275 18.3182 118.494 18.3182C119.335 18.3182 120.172 18.4167 121.006 18.6137C121.839 18.8106 122.6 19.1364 123.29 19.5909C123.979 20.0379 124.532 20.6477 124.949 21.4205C125.373 22.1932 125.585 23.1591 125.585 24.3182V36H121.631V33.6023H121.494C121.244 34.0871 120.892 34.5417 120.438 34.9659C119.991 35.3826 119.426 35.7197 118.744 35.9773C118.07 36.2273 117.278 36.3523 116.369 36.3523ZM117.438 33.3296C118.263 33.3296 118.979 33.1667 119.585 32.8409C120.191 32.5076 120.657 32.0682 120.983 31.5228C121.316 30.9773 121.483 30.3826 121.483 29.7387V27.6818C121.354 27.7879 121.134 27.8864 120.824 27.9773C120.521 28.0682 120.18 28.1477 119.801 28.2159C119.422 28.2841 119.047 28.3447 118.676 28.3978C118.305 28.4508 117.983 28.4962 117.71 28.5341C117.097 28.6174 116.547 28.7538 116.062 28.9432C115.578 29.1326 115.195 29.3978 114.915 29.7387C114.634 30.072 114.494 30.5038 114.494 31.0341C114.494 31.7917 114.771 32.3637 115.324 32.75C115.877 33.1364 116.581 33.3296 117.438 33.3296Z" fill="#181D25"/>
</svg>
